<?xml version="1.0" encoding="UTF-8"?>
<svg id="Calque_2" data-name="Calque 2" xmlns="http://www.w3.org/2000/svg" xmlns:xlink="http://www.w3.org/1999/xlink" viewBox="0 0 257.8 208.89">
  <defs>
    <style>
      .cls-1 {
        fill: none;
      }

      .cls-2 {
        clip-path: url(#clippath);
      }

      .cls-3 {
        fill: #f2f2f2;
      }

      .cls-4 {
        fill: #de0f3f;
      }

      .cls-5 {
        fill: #0820a6;
      }

      .cls-6 {
        clip-path: url(#clippath-1);
      }
    </style>
    <clipPath id="clippath">
      <rect class="cls-1" x="100.94" y="84.05" width="54.67" height="47.98"/>
    </clipPath>
    <clipPath id="clippath-1">
      <rect class="cls-1" x="101.62" y="85" width="54.67" height="47.98"/>
    </clipPath>
  </defs>
  <g id="Calque_2-2" data-name="Calque 2">
    <g id="Calque_1-2" data-name="Calque 1-2">
      <g>
        <path class="cls-1" d="M252.71,84.05c-4.14-6.36-10.51-11.11-18.01-13.17l-.59-1.41-23.18-55.25C207.59,6.21,199.9,.45,190.78,.03H66.86c-9.09,.42-16.82,6.18-20.05,14.19l-23.02,54.78-.79,1.88c-7.45,2.06-13.79,6.81-17.91,13.17-3.22,4.95-5.09,10.87-5.09,17.25v66.63H20.58v20.55c0,11.25,9.04,20.41,20.24,20.41s20.28-9.16,20.28-20.41v-20.55h32.81c-.26-.4-.42-.62-.42-.62-10.52-12.36-16.53-24.57-19.94-35.28-5.14-16.1-4.4-28.78-4.3-33.4,.09-4.49,2.46-7.88,6.16-7.45,3.71,.43,5.45,3.35,5.37,7.14-.22,10.19,1.17,21.78,6.75,30.16,.89,1.33,1.85,2.48,2.9,3.55,1.51,1.56,3.2,2.96,5.08,4.51l-2.35-4.51-1.96-3.75c-1.36-2.6-.35-5.8,2.25-7.15,2.6-1.36,5.8-.36,7.16,2.24l4.51,8.66,8.52,16.34c4.7,6.5,6.44,13.47,6.81,19.56h17.2c.38-6.08,2.11-13.05,6.82-19.56l8.52-16.34,4.52-8.66c1.35-2.6,4.55-3.6,7.15-2.24,2.6,1.35,3.6,4.55,2.25,7.15l-1.96,3.75-2.35,4.51c1.88-1.55,3.57-2.95,5.08-4.51,1.05-1.07,2.01-2.22,2.9-3.55,5.58-8.38,6.97-19.97,6.74-30.16-.06-3.79,1.68-6.71,5.38-7.14s6.06,2.96,6.16,7.45c.1,4.62,.83,17.3-4.3,33.4-3.41,10.71-9.42,22.92-19.94,35.28,0,0-.16,.22-.42,.62h32.33v20.54c0,11.25,9.05,20.41,20.28,20.41s20.28-9.16,20.28-20.41v-20.54h20.71V101.3c0-6.38-1.87-12.3-5.09-17.25Zm-21.69,32.96s-.02,.04-.02,.05c-.07,.14-.14,.28-.22,.41-.11,.19-.22,.38-.34,.57-.11,.17-.22,.33-.34,.5-.01,.03-.03,.06-.06,.09-.01,.03-.04,.07-.06,.1-.12,.18-.25,.36-.4,.53-.05,.09-.13,.19-.2,.28-.12,.16-.24,.31-.37,.46-.1,.13-.22,.25-.33,.37-.28,.33-.58,.63-.89,.93-.18,.17-.36,.34-.55,.5,0,.02-.03,.04-.05,.05-.17,.15-.34,.29-.52,.43-.07,.06-.14,.12-.21,.17-.18,.14-.36,.27-.54,.4-.18,.13-.37,.26-.55,.38-.23,.15-.45,.29-.69,.43-.53,.31-1.07,.6-1.64,.85-.22,.1-.44,.19-.67,.28-.2,.08-.4,.16-.61,.23-.42,.16-.86,.29-1.3,.41-.23,.06-.45,.11-.67,.16-.23,.05-.45,.1-.68,.14-.2,.04-.41,.07-.61,.11-.82,.12-1.67,.18-2.53,.18-1.17,0-2.32-.12-3.42-.34-.22-.05-.45-.1-.67-.15h-.01c-.22-.06-.44-.12-.66-.18-.21-.06-.42-.13-.63-.2h-.01c-.87-.28-1.7-.63-2.5-1.05-.2-.1-.4-.21-.59-.32-.19-.11-.38-.22-.57-.34-.3-.19-.6-.38-.89-.59-.34-.25-.67-.5-.99-.77-.18-.15-.36-.31-.53-.47-.2-.17-.4-.36-.59-.56-.21-.2-.41-.41-.59-.63-.16-.17-.32-.35-.47-.53-.19-.23-.38-.47-.56-.71-.15-.21-.31-.43-.45-.65-.45-.66-.85-1.35-1.18-2.07-.07-.15-.14-.31-.2-.46-.02-.05-.04-.09-.06-.14,0-.01-.01-.02-.01-.03-.01-.02-.02-.03-.02-.04-.01-.02-.01-.03-.02-.04-.01-.01-.01-.02-.01-.03h-.01s0-.02-.01-.03c0-.01-.01-.01-.01-.02,0-.02-.01-.03-.02-.04-.03-.07-.06-.14-.09-.21-.03-.07-.06-.14-.09-.21-.08-.17-.14-.36-.2-.54-.03-.06-.05-.12-.06-.18,0-.01-.01-.02-.01-.03-.11-.32-.21-.66-.3-.99h0c-.05-.17-.09-.33-.12-.48-.06-.25-.11-.5-.16-.76-.05-.25-.09-.51-.13-.77-.12-.81-.18-1.64-.18-2.48,0-9.47,7.67-17.01,17.02-17.01s17.05,7.65,17.05,17.01c0,1.17-.12,2.32-.34,3.42-.05,.22-.1,.45-.15,.67h0c-.06,.23-.12,.45-.18,.67-.06,.21-.13,.42-.2,.64h0c-.07,.23-.14,.44-.22,.65-.03,.09-.07,.18-.11,.26-.04,.12-.08,.23-.13,.34-.09,.22-.19,.44-.29,.65-.09,.21-.19,.41-.3,.6-.01,.02-.02,.04-.04,.06-.02,.03-.03,.05-.04,.07Zm-174.44-3.08v.02h-.01v.04s-.02,.08-.03,.12h-.01s-.03,.09-.04,.14c-.02,.05-.04,.1-.06,.15h0s-.03,.07-.04,.11c-.01,.02-.02,.05-.02,.07-.05,.17-.11,.34-.17,.51-.11,.27-.22,.55-.34,.82-.05,.12-.1,.24-.16,.36-.12,.26-.25,.51-.38,.76-.02,.02-.03,.04-.05,.06-.01,.01-.02,.03-.02,.04s0,.02-.01,.03c-.03,.07-.06,.13-.11,.2-.03,.07-.06,.13-.11,.2-.03,.05-.06,.1-.09,.15-.05,.1-.11,.2-.18,.3-.15,.24-.29,.48-.46,.7-.04,.07-.08,.13-.14,.2-.13,.18-.25,.36-.39,.53-.12,.16-.24,.31-.37,.46-.14,.18-.3,.36-.45,.53-.17,.2-.35,.38-.54,.56-.22,.23-.46,.46-.71,.67-.13,.13-.26,.24-.39,.35-.41,.36-.84,.68-1.29,.99-.11,.08-.23,.16-.35,.24-.17,.12-.35,.23-.53,.33-.15,.09-.3,.18-.45,.26-.03,.02-.06,.03-.09,.05-.12,.07-.24,.13-.36,.19-.07,.04-.13,.08-.2,.11h0s-.02,.01-.03,.02c-.04,.02-.07,.04-.11,.05-.01,.01-.03,.02-.04,.02t-.02,0s-.01,.01-.02,.01c-.01,.02-.03,.02-.05,.03-.22,.11-.45,.21-.68,.31-.32,.14-.65,.27-.98,.39h-.01c-.42,.16-.85,.29-1.29,.41s-.88,.22-1.34,.3c-.45,.09-.91,.15-1.37,.2-.57,.06-1.15,.09-1.74,.09-2.05,0-4.02-.36-5.85-1.03-.52-.19-1.02-.4-1.52-.64h-.01c-1.73-.84-3.31-1.96-4.65-3.3-.19-.19-.38-.39-.56-.59-.07-.08-.14-.15-.21-.23-.04-.04-.08-.09-.11-.13-.03-.03-.05-.06-.08-.08-.03-.03-.05-.06-.08-.09-.02-.02-.03-.04-.05-.06h0s-.01-.02-.02-.03c-.02-.02-.03-.05-.05-.07-.03-.03-.05-.05-.07-.08-.05-.06-.09-.11-.13-.17-.05-.06-.1-.11-.14-.17-.17-.21-.33-.42-.48-.64-.19-.28-.38-.57-.56-.87-.57-.94-1.05-1.93-1.44-2.98-.67-1.83-1.04-3.81-1.04-5.88,0-9.47,7.7-17.01,17.05-17.01s16.96,7.65,16.96,17.01c0,1.17-.12,2.31-.34,3.42-.05,.23-.1,.45-.15,.68-.06,.24-.12,.47-.19,.71,0,.01-.01,.03-.01,.04-.01,0-.01,.02-.01,.03,0,.02-.02,.04-.02,.06,0,.01-.01,.01-.01,.01Zm7.25-93.07c.84-2.53,3.26-4.31,5.99-4.31h118c2.82,0,5.15,1.78,6.09,4.31l20.28,48.84H43.45L63.83,20.86Z"/>
        <path class="cls-3" d="M252.71,84.05c-4.14-6.36-10.51-11.11-18.01-13.17l-.59-1.41-23.18-55.25C207.59,6.21,199.9,.45,190.78,.03c-.36-.02-.72-.03-1.08-.03H67.93c-.36,0-.72,.01-1.07,.03-9.09,.42-16.82,6.18-20.05,14.19l-23.02,54.78-.79,1.88c-7.45,2.06-13.79,6.81-17.91,13.17-3.22,4.95-5.09,10.87-5.09,17.25v66.63H20.58v20.55c0,11.25,9.04,20.41,20.24,20.41s20.28-9.16,20.28-20.41v-20.55h32.81c-.26-.4-.42-.62-.42-.62-10.52-12.36-16.53-24.57-19.94-35.28-5.14-16.1-4.4-28.78-4.3-33.4,.09-4.49,2.46-7.88,6.16-7.45,3.71,.43,5.45,3.35,5.37,7.14-.22,10.19,1.17,21.78,6.75,30.16,.89,1.33,1.85,2.48,2.9,3.55,1.51,1.56,3.2,2.96,5.08,4.51l-2.35-4.51-1.96-3.75c-1.36-2.6-.35-5.8,2.25-7.15,2.6-1.36,5.8-.36,7.16,2.24l4.51,8.66,8.52,16.34c4.7,6.5,6.44,13.47,6.81,19.56h17.2c.38-6.08,2.11-13.05,6.82-19.56l8.52-16.34,4.52-8.66c1.35-2.6,4.55-3.6,7.15-2.24,2.6,1.35,3.6,4.55,2.25,7.15l-1.96,3.75-2.35,4.51c1.88-1.55,3.57-2.95,5.08-4.51,1.05-1.07,2.01-2.22,2.9-3.55,5.58-8.38,6.97-19.97,6.74-30.16-.06-3.79,1.68-6.71,5.38-7.14s6.06,2.96,6.16,7.45c.1,4.62,.83,17.3-4.3,33.4-3.41,10.71-9.42,22.92-19.94,35.28,0,0-.16,.22-.42,.62h32.33v20.54c0,11.25,9.05,20.41,20.28,20.41s20.28-9.16,20.28-20.41v-20.54h20.71V101.3c0-6.38-1.87-12.3-5.09-17.25Zm-21.69,32.96s-.02,.04-.02,.05c-.07,.14-.14,.28-.22,.41-.11,.19-.22,.38-.34,.57-.11,.17-.22,.33-.34,.5-.01,.03-.03,.06-.06,.09-.01,.03-.04,.07-.06,.1-.12,.18-.25,.36-.4,.53-.05,.09-.13,.19-.2,.28-.12,.16-.24,.31-.37,.46-.1,.13-.22,.25-.33,.37-.28,.33-.58,.63-.89,.93-.18,.17-.36,.34-.55,.5,0,.02-.03,.04-.05,.05-.17,.15-.34,.29-.52,.43-.07,.06-.14,.12-.21,.17-.18,.14-.36,.27-.54,.4-.18,.13-.37,.26-.55,.38-.23,.15-.45,.29-.69,.43-.53,.31-1.07,.6-1.64,.85-.22,.1-.44,.19-.67,.28-.2,.08-.4,.16-.61,.23-.42,.16-.86,.29-1.3,.41-.23,.06-.45,.11-.67,.16-.23,.05-.45,.1-.68,.14-.2,.04-.41,.07-.61,.11-.82,.12-1.67,.18-2.53,.18-1.17,0-2.32-.12-3.42-.34-.22-.05-.45-.1-.67-.15h-.01c-.22-.06-.44-.12-.66-.18-.21-.06-.42-.13-.63-.2h-.01c-.87-.28-1.7-.63-2.5-1.05-.2-.1-.4-.21-.59-.32-.19-.11-.38-.22-.57-.34-.3-.19-.6-.38-.89-.59-.34-.25-.67-.5-.99-.77-.18-.15-.36-.31-.53-.47-.2-.17-.4-.36-.59-.56-.21-.2-.41-.41-.59-.63-.16-.17-.32-.35-.47-.53-.19-.23-.38-.47-.56-.71-.15-.21-.31-.43-.45-.65-.45-.66-.85-1.35-1.18-2.07-.07-.15-.14-.31-.2-.46-.02-.05-.04-.09-.06-.14,0-.01-.01-.02-.01-.03-.01-.02-.02-.03-.02-.04-.01-.02-.01-.03-.02-.04-.01-.01-.01-.02-.01-.03h-.01s0-.02-.01-.03c0-.01-.01-.01-.01-.02,0-.02-.01-.03-.02-.04-.03-.07-.06-.14-.09-.21-.03-.07-.06-.14-.09-.21-.08-.17-.14-.36-.2-.54-.03-.06-.05-.12-.06-.18,0-.01-.01-.02-.01-.03-.11-.32-.21-.66-.3-.99h0c-.05-.17-.09-.33-.12-.48-.06-.25-.11-.5-.16-.76-.05-.25-.09-.51-.13-.77-.12-.81-.18-1.64-.18-2.48,0-9.47,7.67-17.01,17.02-17.01s17.05,7.65,17.05,17.01c0,1.17-.12,2.32-.34,3.42-.05,.22-.1,.45-.15,.67h0c-.06,.23-.12,.45-.18,.67-.06,.21-.13,.42-.2,.64h0c-.07,.23-.14,.44-.22,.65-.03,.09-.07,.18-.11,.26-.04,.12-.08,.23-.13,.34-.09,.22-.19,.44-.29,.65-.09,.21-.19,.41-.3,.6-.01,.02-.02,.04-.04,.06-.02,.03-.03,.05-.04,.07Zm-174.44-3.08v.02h-.01v.04s-.02,.08-.03,.12h-.01s-.03,.09-.04,.14c-.02,.05-.04,.1-.06,.15h0s-.03,.07-.04,.11c-.01,.02-.02,.05-.02,.07-.05,.17-.11,.34-.17,.51-.11,.27-.22,.55-.34,.82-.05,.12-.1,.24-.16,.36-.12,.26-.25,.51-.38,.76-.02,.02-.03,.04-.05,.06-.01,.01-.02,.03-.02,.04s0,.02-.01,.03c-.03,.07-.06,.13-.11,.2-.03,.07-.06,.13-.11,.2-.03,.05-.06,.1-.09,.15-.05,.1-.11,.2-.18,.3-.15,.24-.29,.48-.46,.7-.04,.07-.08,.13-.14,.2-.13,.18-.25,.36-.39,.53-.12,.16-.24,.31-.37,.46-.14,.18-.3,.36-.45,.53-.17,.2-.35,.38-.54,.56-.22,.23-.46,.46-.71,.67-.13,.13-.26,.24-.39,.35-.41,.36-.84,.68-1.29,.99-.11,.08-.23,.16-.35,.24-.17,.12-.35,.23-.53,.33-.15,.09-.3,.18-.45,.26-.03,.02-.06,.03-.09,.05-.12,.07-.24,.13-.36,.19-.07,.04-.13,.08-.2,.11h0s-.02,.01-.03,.02c-.04,.02-.07,.04-.11,.05-.01,.01-.03,.02-.04,.02t-.02,0s-.01,.01-.02,.01c-.01,.02-.03,.02-.05,.03-.22,.11-.45,.21-.68,.31-.32,.14-.65,.27-.98,.39h-.01c-.42,.16-.85,.29-1.29,.41s-.88,.22-1.34,.3c-.45,.09-.91,.15-1.37,.2-.57,.06-1.15,.09-1.74,.09-2.05,0-4.02-.36-5.85-1.03-.52-.19-1.02-.4-1.52-.64h-.01c-1.73-.84-3.31-1.96-4.65-3.3-.19-.19-.38-.39-.56-.59-.07-.08-.14-.15-.21-.23-.04-.04-.08-.09-.11-.13-.03-.03-.05-.06-.08-.08-.03-.03-.05-.06-.08-.09-.02-.02-.03-.04-.05-.06h0s-.01-.02-.02-.03c-.02-.02-.03-.05-.05-.07-.03-.03-.05-.05-.07-.08-.05-.06-.09-.11-.13-.17-.05-.06-.1-.11-.14-.17-.17-.21-.33-.42-.48-.64-.19-.28-.38-.57-.56-.87-.57-.94-1.05-1.93-1.44-2.98-.67-1.83-1.04-3.81-1.04-5.88,0-9.47,7.7-17.01,17.05-17.01s16.96,7.65,16.96,17.01c0,1.17-.12,2.31-.34,3.42-.05,.23-.1,.45-.15,.68-.06,.24-.12,.47-.19,.71,0,.01-.01,.03-.01,.04-.01,0-.01,.02-.01,.03,0,.02-.02,.04-.02,.06,0,.01-.01,.01-.01,.01Zm7.25-93.07c.84-2.53,3.26-4.31,5.99-4.31h118c2.82,0,5.15,1.78,6.09,4.31l20.28,48.84H43.45L63.83,20.86Z"/>
        <path class="cls-1" d="M190.27,90.7v77.23h-26.07c.26-.4,.42-.62,.42-.62,10.52-12.36,16.53-24.57,19.94-35.28,5.13-16.1,4.4-28.78,4.3-33.4-.1-4.49-2.46-7.88-6.16-7.45s-5.44,3.35-5.38,7.14c.23,10.19-1.16,21.78-6.74,30.16-.89,1.33-1.85,2.48-2.9,3.55-1.51,1.56-3.2,2.96-5.08,4.51l2.35-4.51,1.96-3.75c1.35-2.6,.35-5.8-2.25-7.15-2.6-1.36-5.8-.36-7.15,2.24l-4.52,8.66-8.52,16.34c-4.71,6.51-6.44,13.48-6.82,19.56h-.71V90.7h53.33Z"/>
        <path class="cls-1" d="M120.94,90.7v77.23h-.49c-.37-6.09-2.11-13.06-6.81-19.56l-8.52-16.34-4.51-8.66c-1.36-2.6-4.56-3.6-7.16-2.24-2.6,1.35-3.61,4.55-2.25,7.15l1.96,3.75,2.35,4.51c-1.88-1.55-3.57-2.95-5.08-4.51-1.05-1.07-2.01-2.22-2.9-3.55-5.58-8.38-6.97-19.97-6.75-30.16,.08-3.79-1.66-6.71-5.37-7.14-3.7-.43-6.07,2.96-6.16,7.45-.1,4.62-.84,17.3,4.3,33.4,3.41,10.71,9.42,22.92,19.94,35.28,0,0,.16,.22,.42,.62h-24.97V90.7h52Z"/>
        <g class="cls-2">
          <path class="cls-4" d="M154.58,98.88c0-8.2-6.64-14.84-14.84-14.84-4.91,0-9.27,2.39-11.96,6.06-2.71-3.68-7.06-6.06-11.97-6.06-8.2,0-14.84,6.65-14.84,14.84,0,3.97,1.56,7.57,4.09,10.23l22.03,22.34,24.39-23.47c1.95-2.52,3.11-5.67,3.11-9.1"/>
        </g>
        <path class="cls-3" d="M210.93,14.22C207.59,6.21,199.9,.45,190.78,.03c-.36-.02-.72-.03-1.08-.03H67.93c-.36,0-.72,.01-1.07,.03-9.09,.42-16.82,6.18-20.05,14.19l-23.02,54.78c7.71,9.2,19.28,15.05,32.22,15.05H202.3c12.72,0,24.12-5.65,31.81-14.58l-23.18-55.25ZM43.45,69.7L63.83,20.86c.84-2.53,3.26-4.31,5.99-4.31h118c2.82,0,5.15,1.78,6.09,4.31l20.28,48.84H43.45Z"/>
        <path class="cls-5" d="M28.32,121.05c-.97-.95-1.83-2.03-2.54-3.21,.72,1.17,1.57,2.25,2.54,3.21Z"/>
        <path class="cls-5" d="M56.82,113.08c-1.35,5.57-5.42,10.04-10.72,11.94,5.29-1.93,9.35-6.41,10.72-11.94Z"/>
        <path class="cls-3" d="M252.71,84.05H5.09c-3.22,4.95-5.09,10.87-5.09,17.25v30.73H73.55c-5.14-16.1-4.4-28.78-4.3-33.4,.09-4.49,2.46-7.88,6.16-7.45,3.71,.43,5.45,3.35,5.37,7.14-.22,10.19,1.17,21.78,6.75,30.16,.89,1.33,1.85,2.48,2.9,3.55h2.73l-1.96-3.75c-1.36-2.6-.35-5.8,2.25-7.15,2.6-1.36,5.8-.36,7.16,2.24l4.51,8.66h47.87l4.52-8.66c1.35-2.6,4.55-3.6,7.15-2.24,2.6,1.35,3.6,4.55,2.25,7.15l-1.96,3.75h2.73c1.05-1.07,2.01-2.22,2.9-3.55,5.58-8.38,6.97-19.97,6.74-30.16-.06-3.79,1.68-6.71,5.38-7.14s6.06,2.96,6.16,7.45c.1,4.62,.83,17.3-4.3,33.4h73.24v-30.73c0-6.38-1.87-12.3-5.09-17.25ZM56.97,112.4c-.05,.23-.1,.45-.15,.68-.06,.24-.12,.47-.19,.71,0,.01-.01,.03-.01,.04-.01,0-.01,.02-.01,.03,0,.02-.02,.04-.02,.06h-.01v.03h-.01v.04s-.03,.08-.04,.12c-.03,.1-.07,.19-.1,.29h0s-.03,.07-.04,.11c-.01,.02-.02,.05-.02,.07-.09,.26-.19,.52-.29,.76-.01,.05-.03,.09-.05,.13-.09,.2-.17,.4-.26,.6-.11,.25-.23,.5-.36,.74-.04,.1-.09,.19-.14,.28-.01,.01-.02,.03-.02,.04-.01,.02-.02,.03-.03,.04,0,.01-.01,.01-.01,.01,0,.01-.01,.02-.02,.03-.01,.02-.02,.03-.03,.05,0,.02-.01,.03-.02,.04-.01,.03-.03,.05-.04,.07,0,.01-.01,.02-.01,.03-.04,.06-.07,.13-.1,.19-.04,.06-.07,.11-.11,.17-.01,.01-.02,.03-.03,.04-.05,.1-.11,.2-.18,.3-.06,.09-.11,.19-.17,.28-.03,.05-.07,.08-.1,.13-.01,.01-.02,.02-.03,.03h0s-.02,.04-.03,.05c-.01,.02-.02,.04-.04,.06-.06,.11-.13,.21-.21,.31-.12,.17-.24,.33-.37,.49-.19,.25-.39,.5-.6,.73-.13,.15-.25,.29-.39,.43-.16,.19-.33,.36-.52,.54-.01,0-.03,.03-.04,.04-.23,.23-.47,.45-.72,.66-.26,.24-.53,.46-.8,.66-.54,.43-1.11,.82-1.71,1.16-.09,.06-.17,.11-.26,.16-.03,.02-.06,.03-.09,.05-.12,.07-.24,.13-.36,.19-.07,.04-.13,.08-.2,.11h0s-.02,.01-.03,.02c-.04,.02-.07,.04-.11,.05-.01,.01-.03,.02-.04,.02t-.02,0s-.01,.01-.02,.01c-.01,.02-.03,.02-.05,.03-.22,.11-.45,.21-.68,.31-.32,.14-.65,.27-.98,.39h-.01c-.42,.16-.85,.29-1.29,.41s-.88,.22-1.34,.3c-.45,.09-.91,.15-1.37,.2-.57,.06-1.15,.09-1.74,.09-2.05,0-4.02-.36-5.85-1.03-.52-.19-1.02-.4-1.52-.64h-.01c-1.73-.84-3.31-1.96-4.65-3.3-.19-.19-.38-.39-.56-.59-.07-.08-.14-.15-.21-.23-.04-.04-.08-.09-.11-.13-.03-.03-.05-.06-.08-.08-.02-.03-.05-.06-.07-.09-.01-.01-.02-.03-.03-.04s-.02-.02-.03-.02h0s-.01-.02-.02-.03c-.02-.02-.03-.05-.05-.07-.03-.03-.05-.05-.07-.08-.05-.06-.09-.11-.13-.17-.05-.06-.1-.11-.14-.17-.17-.21-.33-.42-.48-.64-.19-.28-.38-.57-.56-.87-.57-.94-1.05-1.93-1.44-2.98-.67-1.83-1.04-3.81-1.04-5.88,0-9.47,7.7-17.01,17.05-17.01s16.96,7.65,16.96,17.01c0,1.17-.12,2.31-.34,3.42Zm175.71,0c-.05,.22-.1,.45-.15,.67h0c-.06,.23-.12,.45-.18,.67-.06,.21-.13,.42-.2,.64h0c-.1,.31-.21,.61-.33,.91s-.25,.59-.38,.88c-.01,.01-.01,.02-.02,.04-.12,.25-.24,.49-.36,.73-.02,.03-.03,.05-.04,.07-.01,.02-.02,.04-.02,.05-.01,.01-.02,.03-.03,.04-.12,.24-.26,.47-.4,.69-.15,.26-.31,.51-.47,.75-.01,.03-.03,.06-.06,.09-.01,.03-.04,.07-.06,.1-.07,.08-.13,.18-.2,.26-.07,.09-.13,.18-.2,.27-.39,.51-.81,1-1.25,1.46-.02,.02-.03,.04-.05,.05-1.35,1.41-2.93,2.59-4.7,3.47-.05,.02-.1,.04-.15,.07-.54,.26-1.1,.5-1.67,.71-.42,.16-.86,.29-1.3,.41-.23,.06-.45,.11-.67,.16-.23,.05-.45,.1-.68,.14-.2,.04-.41,.07-.61,.11-.82,.12-1.67,.18-2.53,.18-1.17,0-2.32-.12-3.42-.34-.22-.05-.45-.1-.67-.15h-.01c-.22-.06-.44-.12-.66-.18-.21-.06-.42-.13-.63-.2h-.01c-.53-.18-1.05-.38-1.55-.61-.15-.06-.29-.13-.43-.2-.48-.23-.95-.48-1.41-.77-.17-.09-.33-.2-.49-.31-.04-.02-.09-.05-.13-.08-.18-.11-.35-.23-.52-.36-.47-.33-.92-.7-1.35-1.08-.22-.19-.44-.39-.65-.6-.27-.27-.53-.54-.78-.83-.19-.21-.38-.42-.55-.65-.42-.51-.8-1.04-1.15-1.6,0-.01-.01-.01-.01-.02,0-.01-.02-.03-.03-.04-.11-.19-.23-.37-.33-.57-.03-.03-.05-.07-.06-.1-.05-.08-.09-.16-.14-.25-.03-.05-.06-.11-.09-.17,0,0-.01,0,0-.02-.02-.01-.02-.02-.02-.03t-.01-.01s-.01-.02-.02-.04c-.06-.12-.13-.25-.19-.38-.06-.12-.12-.25-.17-.38,0-.02-.02-.03-.03-.05-.02-.05-.04-.09-.06-.14,0-.01-.01-.02-.01-.03-.01-.02-.02-.03-.02-.04-.01-.02-.01-.03-.02-.04-.01-.01-.01-.02-.01-.03h-.01s0-.02-.01-.03c0-.01-.01-.01-.01-.02,0-.02-.01-.03-.02-.04-.03-.07-.06-.14-.09-.21-.02-.04-.04-.09-.05-.14-.11-.26-.21-.53-.3-.79,0-.01-.01-.02-.01-.03-.11-.32-.21-.66-.3-.99h0c-.06-.24-.11-.47-.16-.71-.04-.18-.08-.35-.12-.53-.05-.25-.09-.51-.13-.77-.12-.81-.18-1.64-.18-2.48,0-9.47,7.67-17.01,17.02-17.01s17.05,7.65,17.05,17.01c0,1.17-.12,2.32-.34,3.42Z"/>
        <path class="cls-5" d="M200.66,116.43c.13,.26,.26,.52,.39,.77-.27-.49-.52-.99-.73-1.51-.01-.02-.02-.04-.03-.06-.03-.07-.06-.14-.09-.21-.02-.04-.04-.09-.05-.14,.1,.26,.22,.51,.34,.77,.05,.13,.11,.26,.17,.38Z"/>
        <path class="cls-5" d="M199.54,113.46c-.05-.16-.09-.32-.12-.47-.06-.25-.11-.5-.16-.76,.04,.18,.08,.35,.12,.53,.05,.24,.1,.47,.16,.7Z"/>
        <path class="cls-5" d="M199.84,114.46c-.03-.08-.05-.15-.08-.23-.08-.25-.16-.5-.22-.76,.09,.33,.19,.67,.3,.99Z"/>
        <path class="cls-5" d="M200.49,116.05c.06,.13,.11,.26,.17,.39-.06-.13-.12-.26-.17-.39Z"/>
        <path class="cls-5" d="M200.66,116.43c.26,.54,.55,1.06,.86,1.57-.32-.51-.61-1.03-.86-1.57Z"/>
        <path class="cls-5" d="M201.52,118s.02,.04,.03,.05c-.01-.02-.02-.04-.03-.05Z"/>
        <path class="cls-5" d="M200.49,116.05c-.06-.12-.11-.24-.17-.36-.01-.02-.02-.04-.03-.06-.03-.07-.06-.14-.09-.21-.03-.07-.06-.14-.09-.21-.08-.17-.14-.36-.2-.54-.03-.06-.05-.12-.06-.18,.09,.26,.19,.53,.3,.79,.1,.26,.22,.51,.34,.77Z"/>
        <path class="cls-5" d="M210.57,125.15c-.87-.28-1.7-.63-2.5-1.05-.2-.1-.4-.21-.59-.32-.19-.11-.38-.22-.57-.34-.3-.19-.6-.38-.89-.59-.34-.25-.67-.5-.99-.77-.18-.15-.36-.31-.53-.47-.2-.18-.4-.37-.59-.56-.21-.2-.41-.41-.59-.63-.16-.17-.32-.35-.47-.53-.19-.23-.38-.47-.56-.71-.15-.21-.31-.43-.45-.65-.1-.15-.18-.32-.28-.47,.35,.56,.73,1.09,1.15,1.6,.17,.23,.36,.44,.55,.65,.25,.29,.51,.56,.78,.83,.21,.21,.43,.41,.65,.6,.43,.38,.88,.75,1.35,1.08,.17,.13,.34,.25,.52,.36,.04,.03,.09,.06,.13,.08,.16,.11,.32,.22,.49,.31,.46,.29,.93,.54,1.41,.77,.14,.07,.28,.14,.43,.2,.5,.23,1.02,.43,1.55,.61Z"/>
        <path class="cls-5" d="M228.28,120.77s.03-.03,.05-.05c-.02,.02-.03,.03-.05,.05Z"/>
        <path class="cls-5" d="M223.58,124.24c1.77-.88,3.35-2.06,4.7-3.47-.17,.17-.32,.36-.49,.53-.18,.17-.36,.34-.55,.5,0,.02-.03,.04-.05,.05-.17,.15-.34,.29-.52,.43-.07,.06-.14,.12-.21,.17-.18,.14-.36,.27-.54,.4-.18,.13-.37,.26-.55,.38-.23,.15-.45,.29-.69,.43-.53,.31-1.07,.6-1.64,.85-.22,.1-.44,.19-.67,.28-.2,.08-.4,.16-.61,.23,.57-.21,1.13-.45,1.67-.71,.05-.03,.1-.05,.15-.07Z"/>
        <path class="cls-5" d="M228.33,120.72c.44-.46,.86-.95,1.25-1.46-.05,.09-.13,.19-.2,.28-.12,.16-.24,.31-.37,.46-.21,.26-.45,.49-.68,.72Z"/>
        <path class="cls-5" d="M231.82,115.29c-.04,.12-.08,.23-.13,.34-.09,.22-.19,.44-.29,.65-.09,.21-.19,.41-.3,.6-.1,.2-.21,.4-.32,.59s-.22,.38-.34,.57c-.15,.23-.3,.46-.46,.69-.12,.18-.25,.36-.4,.53,.71-.94,1.33-1.96,1.84-3.05,0-.02,0-.03,.02-.04,.13-.29,.26-.58,.38-.88Z"/>
        <path class="cls-5" d="M232.15,114.39c-.07,.22-.14,.43-.22,.64-.03,.09-.07,.18-.11,.26,.12-.3,.23-.6,.33-.9Z"/>
        <g class="cls-6">
          <path class="cls-4" d="M155.26,99.83c0-8.2-6.64-14.84-14.84-14.84-4.91,0-9.27,2.39-11.96,6.06-2.71-3.68-7.06-6.06-11.97-6.06-8.2,0-14.84,6.65-14.84,14.84,0,3.97,1.56,7.57,4.09,10.23l22.03,22.34,24.39-23.47c1.95-2.52,3.11-5.67,3.11-9.1"/>
        </g>
      </g>
    </g>
  </g>
</svg>