<?xml version="1.0" encoding="UTF-8"?>
<svg id="Calque_2" data-name="Calque 2" xmlns="http://www.w3.org/2000/svg" xmlns:xlink="http://www.w3.org/1999/xlink" viewBox="0 0 258 209.03">
  <defs>
    <style>
      .cls-1 {
        fill: none;
      }

      .cls-2 {
        clip-path: url(#clippath);
      }

      .cls-3 {
        fill: #fff;
      }

      .cls-4 {
        fill: #de0f3f;
      }

      .cls-5 {
        fill: #061bb0;
      }
    </style>
    <clipPath id="clippath">
      <rect class="cls-1" x="100.96" y="84.05" width="54.67" height="47.98"/>
    </clipPath>
  </defs>
  <g id="Calque_1-2" data-name="Calque 1">
    <rect class="cls-1" y=".03" width="258" height="209"/>
    <path class="cls-5" d="M61.13,167.93v20.55c0,11.25-9.05,20.41-20.28,20.41s-20.24-9.16-20.24-20.41v-20.55H.02V101.29c0-14.55,9.76-26.74,23.01-30.42L46.83,14.21C50.19,5.9,58.4,0,67.95,0h121.77c9.59,0,17.76,5.9,21.22,14.21l23.78,56.66c13.35,3.67,23.1,15.86,23.1,30.42v66.63h-20.71v20.55c0,11.25-9.01,20.41-20.28,20.41s-20.28-9.16-20.28-20.41v-20.55H61.13Zm-20.75-41.9c9.39,0,16.95-7.58,16.95-17.04s-7.57-17.01-16.95-17.01-17.05,7.65-17.05,17.01,7.7,17.04,17.05,17.04Zm192.67-17.04c0-9.36-7.57-17.01-17.05-17.01s-17.02,7.65-17.02,17.01,7.67,17.04,17.02,17.04,17.05-7.58,17.05-17.04Zm-18.83-39.28l-20.28-48.84c-.94-2.53-3.27-4.31-6.09-4.31H69.84c-2.72,0-5.15,1.79-5.99,4.31l-20.38,48.84H214.21Z"/>
    <rect class="cls-1" x="136.96" y="90.69" width="53.33" height="94.35"/>
    <path class="cls-3" d="M164.65,167.3s-.16,.22-.42,.62h-26.55c.38-6.08,2.11-13.05,6.82-19.56l13.04-25c1.35-2.6,4.55-3.6,7.15-2.24,2.6,1.35,3.6,4.55,2.25,7.15l-4.31,8.26c3.17-2.62,5.8-4.79,7.98-8.06,5.58-8.38,6.97-19.97,6.74-30.16-.06-3.79,1.68-6.71,5.38-7.14,3.7-.43,6.06,2.96,6.16,7.45,.16,7.69,2.1,37.73-24.24,68.68Z"/>
    <rect class="cls-1" x="68.96" y="90.69" width="52" height="94.35"/>
    <path class="cls-3" d="M120.47,167.92h-26.54c-.26-.4-.42-.62-.42-.62-26.35-30.95-24.41-60.99-24.24-68.68,.09-4.49,2.46-7.88,6.16-7.45,3.71,.43,5.45,3.35,5.37,7.14-.22,10.19,1.17,21.78,6.75,30.16,2.18,3.27,4.81,5.44,7.98,8.06l-4.31-8.26c-1.36-2.6-.35-5.8,2.25-7.15,2.6-1.36,5.8-.36,7.16,2.24l13.03,25c4.7,6.5,6.44,13.47,6.81,19.56Z"/>
    <g class="cls-2">
      <path class="cls-4" d="M154.6,98.88c0-8.2-6.64-14.84-14.84-14.84-4.91,0-9.27,2.39-11.96,6.06-2.71-3.68-7.06-6.06-11.97-6.06-8.2,0-14.84,6.65-14.84,14.84,0,3.97,1.56,7.57,4.09,10.23l22.03,22.34,24.39-23.47c1.95-2.52,3.11-5.67,3.11-9.1"/>
    </g>
  </g>
</svg>