<?xml version="1.0" encoding="UTF-8"?>
<svg id="Calque_2" data-name="Calque 2" xmlns="http://www.w3.org/2000/svg" viewBox="0 0 551.17 813">
  <defs>
    <style>
      .cls-1 {
        fill: #0820a6;
        stroke: #fff;
        stroke-miterlimit: 10;
        stroke-width: 13px;
      }
    </style>
  </defs>
  <g id="_2" data-name="2">
    <path class="cls-1" d="M544.67,275.59c.01-74.25-30.14-141.64-78.82-190.28C417.22,36.65,349.83,6.49,275.59,6.5c-74.24-.01-141.64,30.15-190.26,78.82C36.65,133.95,6.49,201.33,6.5,275.59c-.01,49.67,13.55,96.3,37.12,136.22h-.01c.02,.05,.07,.1,.1,.15,.06,.1,.1,.2,.16,.3h.02c17.16,30.36,41.72,54.25,60.85,76.29,9.64,11.02,17.89,21.49,23.44,31.27,5.58,9.84,8.41,18.61,8.6,27.39v149.1c.01,46,37.28,83.27,83.29,83.29h11.94c8.13,15.9,24.5,26.9,43.58,26.9s35.45-11,43.58-26.9h11.94c46.01-.01,83.27-37.29,83.29-83.29v-149.08h0c.19-8.8,3.02-17.57,8.6-27.4,8.28-14.72,22.8-30.8,38.69-48.3,15.74-17.47,32.78-36.49,45.61-59.28h.01c.05-.06,.09-.16,.14-.24,.04-.08,.09-.12,.12-.2h-.01c23.56-39.92,37.13-86.55,37.12-136.22Zm-181.85,452.43c-8.17,8.15-19.26,13.13-31.71,13.14h-111.04c-12.45-.01-23.54-4.99-31.71-13.14-8.15-8.17-13.13-19.27-13.14-31.71v-8.32l187.7,39.91s-.06,.09-.1,.12Zm13.14-31.71c0,2.74-.34,5.39-.8,7.98l-199.94-42.51v-52.38l200.74,42.68v44.22Zm0-70.44l-200.74-42.68v-17.16h200.74v59.84Zm98.29-233.21l-.16,.26-.1,.17c-13.29,24.07-35.81,46.64-56.5,70.16-10.32,11.84-20.18,24-27.92,37.55-4.69,8.26-8.42,17.24-10.84,26.77H172.44c-2.42-9.53-6.14-18.51-10.85-26.77-11.61-20.28-27.92-37.63-43.58-55.07-15.72-17.34-30.83-34.62-40.82-52.64l-.13-.2-.14-.24c-20.32-34.31-31.97-74.24-31.98-117.07,.01-63.75,25.79-121.29,67.56-163.08,41.8-41.78,99.33-67.55,163.09-67.56,63.76,.01,121.29,25.78,163.09,67.56,41.77,41.79,67.55,99.33,67.56,163.08-.01,42.83-11.66,82.76-31.98,117.08Z"/>
  </g>
</svg>