<?xml version="1.0" encoding="UTF-8"?>
<svg id="Calque_2" data-name="Calque 2" xmlns="http://www.w3.org/2000/svg" xmlns:xlink="http://www.w3.org/1999/xlink" viewBox="0 0 257.8 208.89">
  <defs>
    <style>
      .cls-1 {
        fill: none;
      }

      .cls-2 {
        clip-path: url(#clippath);
      }

      .cls-3 {
        fill: #f2f2f2;
      }

      .cls-4 {
        fill: #de0f3f;
      }

      .cls-5 {
        fill: #0820a6;
      }

      .cls-6 {
        clip-path: url(#clippath-1);
      }
    </style>
    <clipPath id="clippath">
      <rect class="cls-1" x="100.94" y="84.05" width="54.67" height="47.98"/>
    </clipPath>
    <clipPath id="clippath-1">
      <rect class="cls-1" x="101.61" y="85.01" width="54.67" height="47.98"/>
    </clipPath>
  </defs>
  <g id="Calque_2-2" data-name="Calque 2">
    <g id="Calque_1-2" data-name="Calque 1-2">
      <g>
        <path class="cls-1" d="M252.71,84.05c-4.14-6.36-10.51-11.11-18.01-13.17l-.59-1.41-23.18-55.25C207.59,6.21,199.9,.45,190.78,.03H66.86c-9.09,.42-16.82,6.18-20.05,14.19l-23.02,54.78-.79,1.88c-7.45,2.06-13.79,6.81-17.91,13.17-3.22,4.95-5.09,10.87-5.09,17.25v66.63H20.58v20.55c0,11.25,9.04,20.41,20.24,20.41s20.28-9.16,20.28-20.41v-20.55H196.53v20.54c0,11.25,9.05,20.41,20.28,20.41s20.28-9.16,20.28-20.41v-20.54h20.71V101.3c0-6.38-1.87-12.3-5.09-17.25h0Zm-19.69,24.93c0,9.47-7.57,17.04-17.05,17.04s-17.02-7.57-17.02-17.04,7.67-17.01,17.02-17.01,17.05,7.65,17.05,17.01ZM63.83,20.86c.84-2.53,3.26-4.31,5.99-4.31h118c2.82,0,5.15,1.78,6.09,4.31l20.28,48.84H43.45L63.83,20.86Zm-6.52,88.12c0,9.47-7.57,17.04-16.96,17.04s-17.05-7.57-17.05-17.04,7.7-17.01,17.05-17.01,16.96,7.65,16.96,17.01Z"/>
        <path class="cls-3" d="M252.71,84.05c-4.14-6.36-10.51-11.11-18.01-13.17l-.59-1.41-23.18-55.25C207.59,6.21,199.9,.45,190.78,.03c-.36-.02-.72-.03-1.08-.03H67.93c-.36,0-.72,0-1.07,.03-9.09,.42-16.82,6.18-20.05,14.19l-23.02,54.78-.79,1.88c-7.45,2.06-13.79,6.81-17.91,13.17-3.22,4.95-5.09,10.87-5.09,17.25v66.63H20.58v20.55c0,11.25,9.04,20.41,20.24,20.41s20.28-9.16,20.28-20.41v-20.55H196.53v20.54c0,11.25,9.05,20.41,20.28,20.41s20.28-9.16,20.28-20.41v-20.54h20.71V101.3c0-6.38-1.87-12.3-5.09-17.25h0Zm-19.69,24.93c0,9.47-7.57,17.04-17.05,17.04s-17.02-7.57-17.02-17.04,7.67-17.01,17.02-17.01,17.05,7.65,17.05,17.01ZM63.83,20.86c.84-2.53,3.26-4.31,5.99-4.31h118c2.82,0,5.15,1.78,6.09,4.31l20.28,48.84H43.45L63.83,20.86Zm-6.52,88.12c0,9.47-7.57,17.04-16.96,17.04s-17.05-7.57-17.05-17.04,7.7-17.01,17.05-17.01,16.96,7.65,16.96,17.01Z"/>
        <rect class="cls-1" x="136.94" y="90.7" width="53.33" height="77.23"/>
        <rect class="cls-1" x="68.94" y="90.7" width="52" height="77.23"/>
        <g class="cls-2">
          <path class="cls-4" d="M154.58,98.88c0-8.2-6.64-14.84-14.84-14.84-4.91,0-9.27,2.39-11.96,6.06-2.71-3.68-7.06-6.06-11.97-6.06-8.2,0-14.84,6.65-14.84,14.84,0,3.97,1.56,7.57,4.09,10.23l22.03,22.34,24.39-23.47c1.95-2.52,3.11-5.67,3.11-9.1"/>
        </g>
        <path class="cls-5" d="M214.19,69.7H43.45L63.83,20.86c.84-2.53,3.26-4.31,5.99-4.31h118c2.82,0,5.15,1.78,6.09,4.31l20.28,48.84Z"/>
        <path class="cls-3" d="M210.93,14.22C207.59,6.21,199.9,.45,190.78,.03c-.36-.02-.72-.03-1.08-.03H67.93c-.36,0-.72,0-1.07,.03-9.09,.42-16.82,6.18-20.05,14.19l-23.02,54.78c7.71,9.2,19.28,15.05,32.22,15.05H202.3c12.72,0,24.12-5.65,31.81-14.58,0,0-23.18-55.25-23.18-55.25ZM43.45,69.7L63.83,20.86c.84-2.53,3.26-4.31,5.99-4.31h118c2.82,0,5.15,1.78,6.09,4.31l20.28,48.84H43.45Z"/>
        <path class="cls-5" d="M57.31,108.98c0,9.47-7.57,17.04-16.96,17.04s-17.05-7.57-17.05-17.04,7.7-17.01,17.05-17.01,16.96,7.65,16.96,17.01Z"/>
        <path class="cls-3" d="M252.71,84.05H5.09c-3.22,4.95-5.09,10.87-5.09,17.25v30.73H257.8v-30.73c0-6.38-1.87-12.3-5.09-17.25h0ZM40.35,126.02c-9.35,0-17.05-7.57-17.05-17.04s7.7-17.01,17.05-17.01,16.96,7.65,16.96,17.01-7.57,17.04-16.96,17.04Zm175.62,0c-9.35,0-17.02-7.57-17.02-17.04s7.67-17.01,17.02-17.01,17.05,7.65,17.05,17.01-7.57,17.04-17.05,17.04Z"/>
        <path class="cls-5" d="M233.02,108.98c0,9.47-7.57,17.04-17.05,17.04s-17.02-7.57-17.02-17.04,7.67-17.01,17.02-17.01,17.05,7.65,17.05,17.01Z"/>
        <path class="cls-5" d="M164.62,167.31s-.16,.22-.42,.62h-26.55c.38-6.08,2.11-13.05,6.82-19.56l13.04-25c1.35-2.6,4.55-3.6,7.15-2.24,2.6,1.35,3.6,4.55,2.25,7.15l-4.31,8.26c3.17-2.62,5.8-4.79,7.98-8.06,5.58-8.38,6.97-19.97,6.74-30.16-.06-3.79,1.68-6.71,5.38-7.14,3.7-.43,6.06,2.96,6.16,7.45,.16,7.69,2.1,37.73-24.24,68.68Z"/>
        <path class="cls-5" d="M120.45,167.93h-26.54c-.26-.4-.42-.62-.42-.62-26.35-30.95-24.41-60.99-24.24-68.68,.09-4.49,2.46-7.88,6.16-7.45,3.71,.43,5.45,3.35,5.37,7.14-.22,10.19,1.17,21.78,6.75,30.16,2.18,3.27,4.81,5.44,7.98,8.06l-4.31-8.26c-1.36-2.6-.35-5.8,2.25-7.15,2.6-1.36,5.8-.36,7.16,2.24l13.03,25c4.7,6.5,6.44,13.47,6.81,19.56h0Z"/>
        <g class="cls-6">
          <path class="cls-4" d="M155.26,99.83c0-8.2-6.64-14.84-14.84-14.84-4.91,0-9.27,2.39-11.96,6.06-2.71-3.68-7.06-6.06-11.97-6.06-8.2,0-14.84,6.65-14.84,14.84,0,3.97,1.56,7.57,4.09,10.23l22.03,22.34,24.39-23.47c1.95-2.52,3.11-5.67,3.11-9.1"/>
        </g>
      </g>
    </g>
  </g>
</svg>