<?xml version="1.0" encoding="UTF-8"?>
<svg id="Calque_2" data-name="Calque 2" xmlns="http://www.w3.org/2000/svg" viewBox="0 0 800 720">
  <defs>
    <style>
      .cls-1 {
        fill: #0820a6;
      }
    </style>
  </defs>
  <g id="Layer_1" data-name="Layer 1">
    <g>
      <path class="cls-1" d="M774.59,414.33c21.35-13.21,25.41-33.4,25.41-46.84,0-35-28.52-74.16-66.67-74.16h-186.59c-6.69-.08-40.08-2.36-40.08-40,0-7.36-5.96-13.33-13.33-13.33s-13.33,5.97-13.33,13.33c0,52.73,43.61,66.67,66.67,66.67h186.67c22.16,0,40,25.99,40,47.49,0,6.93,0,28.04-41.45,32.59-7.04,.77-12.24,6.91-11.85,13.99,.37,7.07,6.23,12.6,13.31,12.6,22.05,0,40,17.95,40,40s-17.95,40-40,40h-26.67c-7.37,0-13.33,5.97-13.33,13.33s5.96,13.33,13.33,13.33c22.05,0,40,17.95,40,40s-17.95,40-40,40h-40c-7.37,0-13.33,5.97-13.33,13.33s5.96,13.33,13.33,13.33c13.96,0,26.67,12.71,26.67,26.67s-13.2,26.67-26.67,26.67h-200c-55.67,0-75.69-11.05-98.89-23.84-19.61-10.81-41.85-23.07-85.88-29.36-7.29-1.05-14.05,4.03-15.09,11.31-1.04,7.29,4.01,14.05,11.31,15.09,39.23,5.6,58.32,16.13,76.8,26.32,24.21,13.35,49.23,27.15,111.76,27.15h200c27.92,0,53.33-25.43,53.33-53.33,0-9.73-2.77-18.96-7.55-26.92,34.05-2.93,60.88-31.6,60.88-66.41,0-16.92-6.35-32.4-16.77-44.17,25.35-9.45,43.44-33.89,43.44-62.49,0-21.2-9.95-40.12-25.41-52.33Z"/>
      <path class="cls-1" d="M120,653.33c14.71,0,26.67-11.96,26.67-26.67s-11.96-26.67-26.67-26.67-26.67,11.96-26.67,26.67,11.96,26.67,26.67,26.67Z"/>
      <path class="cls-1" d="M280,346.67c39.61,0,89.73-44.21,116.09-70.57,57.24-57.24,57.24-128.39,57.24-236.09,0-8.35,4.99-13.33,13.33-13.33,46.11,0,66.67,20.56,66.67,66.67V253.33c0,7.36,5.96,13.33,13.33,13.33s13.33-5.97,13.33-13.33V93.33c0-61.07-32.28-93.33-93.33-93.33-23.17,0-40,16.83-40,40,0,104.65,0,167.81-49.43,217.24-38.71,38.7-75.97,62.76-97.24,62.76-7.37,0-13.33,5.97-13.33,13.33s5.96,13.33,13.33,13.33Z"/>
      <path class="cls-1" d="M226.67,293.33H13.33c-7.37,0-13.33,5.97-13.33,13.33v400c0,7.36,5.96,13.33,13.33,13.33H226.67c7.37,0,13.33-5.97,13.33-13.33V306.66c0-7.36-5.96-13.33-13.33-13.33Zm-13.33,400H26.67V320H213.33v373.33h0Z"/>
    </g>
  </g>
</svg>