<?xml version="1.0" encoding="UTF-8"?>
<svg id="Calque_2" data-name="Calque 2" xmlns="http://www.w3.org/2000/svg" viewBox="0 0 800 720">
  <defs>
    <style>
      .cls-1 {
        fill: #0820a6;
      }
    </style>
  </defs>
  <g id="Layer_1" data-name="Layer 1">
    <g>
      <path class="cls-1" d="M120,346.67c14.71,0,26.67-11.96,26.67-26.67s-11.96-26.67-26.67-26.67-26.67,11.96-26.67,26.67,11.96,26.67,26.67,26.67Z"/>
      <path class="cls-1" d="M774.59,305.67c15.47-12.21,25.41-31.13,25.41-52.33,0-28.59-18.09-53.04-43.44-62.49,10.43-11.77,16.77-27.24,16.77-44.17,0-34.81-26.83-63.48-60.88-66.41,4.77-7.96,7.55-17.19,7.55-26.92,0-27.91-25.41-53.33-53.33-53.33h-200c-62.53,0-87.55,13.8-111.76,27.15-18.48,10.19-37.57,20.72-76.8,26.32-7.29,1.04-12.35,7.8-11.31,15.09,1.04,7.28,7.73,12.32,15.09,11.31,44.03-6.29,66.27-18.55,85.88-29.36,23.2-12.79,43.23-23.84,98.89-23.84h200c13.47,0,26.67,13.21,26.67,26.67s-12.71,26.67-26.67,26.67c-7.37,0-13.33,5.97-13.33,13.33s5.96,13.33,13.33,13.33h40c22.05,0,40,17.95,40,40s-17.95,40-40,40c-7.37,0-13.33,5.97-13.33,13.33s5.96,13.33,13.33,13.33h26.67c22.05,0,40,17.95,40,40s-17.95,40-40,40c-7.08,0-12.93,5.53-13.31,12.6-.39,7.08,4.81,13.21,11.85,13.99,41.45,4.55,41.45,25.65,41.45,32.57,0,21.52-17.84,47.51-40,47.51h-186.67c-23.07,0-66.67,13.93-66.67,66.67,0,7.36,5.96,13.33,13.33,13.33s13.33-5.97,13.33-13.33c0-37.64,33.39-39.92,40-40h186.67c38.15,0,66.67-39.15,66.67-74.17,0-13.42-4.07-33.61-25.41-46.82Z"/>
      <path class="cls-1" d="M546.67,453.33c-7.37,0-13.33,5.97-13.33,13.33v160c0,46.11-20.56,66.67-66.67,66.67-8.35,0-13.33-4.99-13.33-13.33,0-107.71,0-178.85-57.24-236.09-26.36-26.36-76.48-70.57-116.09-70.57-7.37,0-13.33,5.97-13.33,13.33s5.96,13.33,13.33,13.33c21.27,0,58.53,24.05,97.24,62.76,49.43,49.43,49.43,112.59,49.43,217.24,0,23.17,16.83,40,40,40,61.05,0,93.33-32.27,93.33-93.33v-160c0-7.36-5.96-13.33-13.33-13.33Z"/>
      <path class="cls-1" d="M226.67,0H13.33C5.96,0,0,5.98,0,13.33V413.33c0,7.36,5.96,13.33,13.33,13.33H226.67c7.37,0,13.33-5.97,13.33-13.33V13.33C240,5.98,234.04,0,226.67,0Zm-13.33,400H26.67V26.67H213.33V400h0Z"/>
    </g>
  </g>
</svg>